<mxfile host="app.diagrams.net" modified="2021-01-14T14:32:43.181Z" agent="5.0 (Windows NT 10.0; Win64; x64) AppleWebKit/537.36 (KHTML, like Gecko) Chrome/87.0.4280.141 Safari/537.36" etag="jbiq_IVw3oq2VVyzbYHu" version="14.1.9" type="github">
  <diagram id="06IiAXgA8cgDI_Lxp7t8" name="Page-1">
    <mxGraphModel dx="1422" dy="762" grid="1" gridSize="10" guides="1" tooltips="1" connect="1" arrows="1" fold="1" page="1" pageScale="1" pageWidth="827" pageHeight="1169" math="0" shadow="0">
      <root>
        <mxCell id="0" />
        <mxCell id="1" parent="0" />
        <mxCell id="MXvkSPdAwNo0PrRt8lIc-1" value="" style="whiteSpace=wrap;html=1;" parent="1" vertex="1">
          <mxGeometry x="154" y="100" width="520" height="920" as="geometry" />
        </mxCell>
        <mxCell id="MXvkSPdAwNo0PrRt8lIc-2" value="Agent de voyage" style="shape=umlActor;verticalLabelPosition=bottom;verticalAlign=top;html=1;" parent="1" vertex="1">
          <mxGeometry x="80" y="390" width="30" height="60" as="geometry" />
        </mxCell>
        <mxCell id="MXvkSPdAwNo0PrRt8lIc-3" value="Organiser un voyage" style="ellipse;whiteSpace=wrap;html=1;" parent="1" vertex="1">
          <mxGeometry x="180" y="410" width="140" height="70" as="geometry" />
        </mxCell>
        <mxCell id="MXvkSPdAwNo0PrRt8lIc-4" value="Réserver une chambre d&#39;hôtel" style="ellipse;whiteSpace=wrap;html=1;" parent="1" vertex="1">
          <mxGeometry x="370" y="170" width="140" height="70" as="geometry" />
        </mxCell>
        <mxCell id="MXvkSPdAwNo0PrRt8lIc-5" value="Réserver un taxi" style="ellipse;whiteSpace=wrap;html=1;" parent="1" vertex="1">
          <mxGeometry x="480" y="270" width="140" height="70" as="geometry" />
        </mxCell>
        <mxCell id="MXvkSPdAwNo0PrRt8lIc-6" value="Réserver un billet de train" style="ellipse;whiteSpace=wrap;html=1;" parent="1" vertex="1">
          <mxGeometry x="500" y="410" width="140" height="70" as="geometry" />
        </mxCell>
        <mxCell id="MXvkSPdAwNo0PrRt8lIc-7" value="Etablir une facture détaillée" style="ellipse;whiteSpace=wrap;html=1;" parent="1" vertex="1">
          <mxGeometry x="410" y="510" width="140" height="70" as="geometry" />
        </mxCell>
        <mxCell id="fdadtWdO-n5RL9nwN0nz-10" value="Directeur d&#39;agence" style="shape=umlActor;verticalLabelPosition=bottom;verticalAlign=top;html=1;" parent="1" vertex="1">
          <mxGeometry x="60" y="770" width="30" height="60" as="geometry" />
        </mxCell>
        <mxCell id="fdadtWdO-n5RL9nwN0nz-11" value="L&#39;administrateur système" style="shape=umlActor;verticalLabelPosition=bottom;verticalAlign=top;html=1;" parent="1" vertex="1">
          <mxGeometry x="60" y="900" width="30" height="60" as="geometry" />
        </mxCell>
        <mxCell id="fdadtWdO-n5RL9nwN0nz-12" value="consulter la liste des voyages organisés" style="ellipse;whiteSpace=wrap;html=1;" parent="1" vertex="1">
          <mxGeometry x="270" y="790" width="140" height="70" as="geometry" />
        </mxCell>
        <mxCell id="fdadtWdO-n5RL9nwN0nz-13" value="gérer les profils utilisateurs" style="ellipse;whiteSpace=wrap;html=1;" parent="1" vertex="1">
          <mxGeometry x="270" y="909" width="140" height="70" as="geometry" />
        </mxCell>
        <mxCell id="fdadtWdO-n5RL9nwN0nz-16" value="&lt;h2 class=&quot;post-title entry-title&quot; style=&quot;border: 0px ; font-family: &amp;#34;bitter&amp;#34; , serif ; font-size: 24px ; font-weight: normal ; margin: 0px 0px 5px ; outline: 0px ; padding: 0px ; vertical-align: baseline ; clear: both ; line-height: 24px ; color: rgb(17 , 17 , 17) ; background-color: rgb(255 , 255 , 255)&quot;&gt;&lt;a href=&quot;https://particular-course.blogspot.com/2014/12/exercice-corrige-uml-agence-de-voyage.html?m=0&quot; style=&quot;border: 0px ; font-family: inherit ; font-style: inherit ; font-weight: inherit ; margin: 0px ; outline: 0px ; padding: 0px ; vertical-align: baseline ; color: rgb(17 , 17 , 17)&quot;&gt;Agence de voyage&lt;/a&gt;&lt;/h2&gt;" style="text;html=1;align=center;verticalAlign=middle;resizable=0;points=[];autosize=1;" parent="1" vertex="1">
          <mxGeometry x="217" y="107" width="190" height="30" as="geometry" />
        </mxCell>
        <mxCell id="fdadtWdO-n5RL9nwN0nz-17" value="&lt;h4&gt;&lt;span style=&quot;font-family: &amp;#34;nunito sans&amp;#34; , sans-serif ; text-align: left ; background-color: rgb(255 , 255 , 255) ; font-weight: normal&quot;&gt;&lt;font style=&quot;font-size: 14px&quot;&gt;&amp;nbsp;Réserver un billet d&#39;avion&lt;/font&gt;&lt;/span&gt;&lt;/h4&gt;" style="ellipse;whiteSpace=wrap;html=1;" parent="1" vertex="1">
          <mxGeometry x="180" y="180" width="140" height="70" as="geometry" />
        </mxCell>
        <mxCell id="fdadtWdO-n5RL9nwN0nz-40" value="&lt;span style=&quot;font-family: &amp;#34;nunito sans&amp;#34; , sans-serif ; text-align: left ; background-color: rgb(255 , 255 , 255)&quot;&gt;&lt;font style=&quot;font-size: 14px&quot;&gt;annuler un voyage&lt;/font&gt;&lt;/span&gt;" style="ellipse;whiteSpace=wrap;html=1;" parent="1" vertex="1">
          <mxGeometry x="210" y="630" width="140" height="70" as="geometry" />
        </mxCell>
        <mxCell id="FK7RZ68ErJKh_nMRjblI-1" value="&amp;lt;&amp;lt;extend&amp;gt;&amp;gt;" style="edgeStyle=none;html=1;startArrow=open;endArrow=none;startSize=12;verticalAlign=bottom;dashed=1;labelBackgroundColor=none;exitX=1;exitY=1;exitDx=0;exitDy=0;entryX=0;entryY=0.5;entryDx=0;entryDy=0;" parent="1" source="MXvkSPdAwNo0PrRt8lIc-3" target="MXvkSPdAwNo0PrRt8lIc-7" edge="1">
          <mxGeometry width="160" relative="1" as="geometry">
            <mxPoint x="330" y="390" as="sourcePoint" />
            <mxPoint x="490" y="390" as="targetPoint" />
          </mxGeometry>
        </mxCell>
        <mxCell id="FK7RZ68ErJKh_nMRjblI-2" value="" style="edgeStyle=none;html=1;endArrow=none;verticalAlign=bottom;entryX=0;entryY=0.5;entryDx=0;entryDy=0;exitX=0.5;exitY=0.5;exitDx=0;exitDy=0;exitPerimeter=0;" parent="1" source="MXvkSPdAwNo0PrRt8lIc-2" target="fdadtWdO-n5RL9nwN0nz-40" edge="1">
          <mxGeometry width="160" relative="1" as="geometry">
            <mxPoint x="109.01999999999998" y="438" as="sourcePoint" />
            <mxPoint x="490" y="390" as="targetPoint" />
          </mxGeometry>
        </mxCell>
        <mxCell id="nY0up4UmZz5c6ungtnPU-1" value="&amp;lt;&amp;lt;include&amp;gt;&amp;gt;" style="edgeStyle=none;html=1;endArrow=open;verticalAlign=bottom;dashed=1;labelBackgroundColor=none;entryX=0.5;entryY=1;entryDx=0;entryDy=0;exitX=0.5;exitY=0;exitDx=0;exitDy=0;" edge="1" parent="1" source="MXvkSPdAwNo0PrRt8lIc-3" target="fdadtWdO-n5RL9nwN0nz-17">
          <mxGeometry width="160" relative="1" as="geometry">
            <mxPoint x="110" y="320" as="sourcePoint" />
            <mxPoint x="270" y="320" as="targetPoint" />
          </mxGeometry>
        </mxCell>
        <mxCell id="nY0up4UmZz5c6ungtnPU-2" value="&amp;lt;&amp;lt;include&amp;gt;&amp;gt;" style="edgeStyle=none;html=1;endArrow=open;verticalAlign=bottom;dashed=1;labelBackgroundColor=none;exitX=1;exitY=0;exitDx=0;exitDy=0;entryX=0;entryY=1;entryDx=0;entryDy=0;" edge="1" parent="1" source="MXvkSPdAwNo0PrRt8lIc-3" target="MXvkSPdAwNo0PrRt8lIc-4">
          <mxGeometry width="160" relative="1" as="geometry">
            <mxPoint x="330" y="390" as="sourcePoint" />
            <mxPoint x="490" y="390" as="targetPoint" />
          </mxGeometry>
        </mxCell>
        <mxCell id="nY0up4UmZz5c6ungtnPU-3" value="&amp;lt;&amp;lt;include&amp;gt;&amp;gt;" style="edgeStyle=none;html=1;endArrow=open;verticalAlign=bottom;dashed=1;labelBackgroundColor=none;exitX=1;exitY=0.5;exitDx=0;exitDy=0;entryX=0;entryY=0.5;entryDx=0;entryDy=0;" edge="1" parent="1" source="MXvkSPdAwNo0PrRt8lIc-3" target="MXvkSPdAwNo0PrRt8lIc-5">
          <mxGeometry width="160" relative="1" as="geometry">
            <mxPoint x="330" y="390" as="sourcePoint" />
            <mxPoint x="490" y="390" as="targetPoint" />
          </mxGeometry>
        </mxCell>
        <mxCell id="nY0up4UmZz5c6ungtnPU-4" value="&amp;lt;&amp;lt;include&amp;gt;&amp;gt;" style="edgeStyle=none;html=1;endArrow=open;verticalAlign=bottom;dashed=1;labelBackgroundColor=none;exitX=1;exitY=0.5;exitDx=0;exitDy=0;entryX=0;entryY=0.5;entryDx=0;entryDy=0;" edge="1" parent="1" source="MXvkSPdAwNo0PrRt8lIc-3" target="MXvkSPdAwNo0PrRt8lIc-6">
          <mxGeometry width="160" relative="1" as="geometry">
            <mxPoint x="330" y="390" as="sourcePoint" />
            <mxPoint x="490" y="390" as="targetPoint" />
          </mxGeometry>
        </mxCell>
        <mxCell id="nY0up4UmZz5c6ungtnPU-5" value="" style="edgeStyle=none;html=1;endArrow=none;verticalAlign=bottom;exitX=0.5;exitY=0.5;exitDx=0;exitDy=0;exitPerimeter=0;entryX=0;entryY=0.5;entryDx=0;entryDy=0;" edge="1" parent="1" source="fdadtWdO-n5RL9nwN0nz-11" target="fdadtWdO-n5RL9nwN0nz-13">
          <mxGeometry width="160" relative="1" as="geometry">
            <mxPoint x="330" y="870" as="sourcePoint" />
            <mxPoint x="490" y="870" as="targetPoint" />
          </mxGeometry>
        </mxCell>
        <mxCell id="nY0up4UmZz5c6ungtnPU-6" value="" style="edgeStyle=none;html=1;endArrow=none;verticalAlign=bottom;exitX=0.5;exitY=0.5;exitDx=0;exitDy=0;exitPerimeter=0;entryX=0;entryY=0.5;entryDx=0;entryDy=0;" edge="1" parent="1" source="fdadtWdO-n5RL9nwN0nz-10" target="fdadtWdO-n5RL9nwN0nz-12">
          <mxGeometry width="160" relative="1" as="geometry">
            <mxPoint x="330" y="870" as="sourcePoint" />
            <mxPoint x="490" y="870" as="targetPoint" />
          </mxGeometry>
        </mxCell>
        <mxCell id="nY0up4UmZz5c6ungtnPU-7" value="" style="edgeStyle=none;html=1;endArrow=none;verticalAlign=bottom;exitX=0.5;exitY=0.5;exitDx=0;exitDy=0;exitPerimeter=0;entryX=0;entryY=0.5;entryDx=0;entryDy=0;" edge="1" parent="1" source="MXvkSPdAwNo0PrRt8lIc-2" target="MXvkSPdAwNo0PrRt8lIc-3">
          <mxGeometry width="160" relative="1" as="geometry">
            <mxPoint x="270" y="630" as="sourcePoint" />
            <mxPoint x="430" y="630" as="targetPoint" />
          </mxGeometry>
        </mxCell>
      </root>
    </mxGraphModel>
  </diagram>
</mxfile>
